<?xml version="1.0" encoding="UTF-8" standalone="no"?>
<svg
   xmlns:dc="http://purl.org/dc/elements/1.1/"
   xmlns:cc="http://creativecommons.org/ns#"
   xmlns:rdf="http://www.w3.org/1999/02/22-rdf-syntax-ns#"
   xmlns:svg="http://www.w3.org/2000/svg"
   xmlns="http://www.w3.org/2000/svg"
   xmlns:sodipodi="http://sodipodi.sourceforge.net/DTD/sodipodi-0.dtd"
   xmlns:inkscape="http://www.inkscape.org/namespaces/inkscape"
   id="svg2"
   viewBox="0 0 493.00002 311.99998"
   version="1.1"
   sodipodi:docname="Dialog.svg"
   width="493"
   height="312"
   inkscape:version="0.92.4 (5da689c313, 2019-01-14)">
  <sodipodi:namedview
     pagecolor="#ffffff"
     bordercolor="#666666"
     borderopacity="1"
     objecttolerance="10"
     gridtolerance="10"
     guidetolerance="10"
     inkscape:pageopacity="0"
     inkscape:pageshadow="2"
     inkscape:window-width="3840"
     inkscape:window-height="1984"
     id="namedview4588"
     showgrid="false"
     inkscape:zoom="3.8839656"
     inkscape:cx="235.88625"
     inkscape:cy="120.59956"
     inkscape:window-x="-16"
     inkscape:window-y="-16"
     inkscape:window-maximized="1"
     inkscape:current-layer="svg2"
     inkscape:lockguides="true" />
  <defs
     id="defs3">
    <linearGradient
       id="linearGradient3921"
       y2="313.13"
       gradientUnits="userSpaceOnUse"
       y1="331.82999"
       x2="277.70001"
       x1="291.57999">
      <stop
         id="stop3857"
         stop-color="#666"
         offset="0" />
      <stop
         id="stop3859"
         stop-color="#505050"
         offset="1" />
    </linearGradient>
    <linearGradient
       id="linearGradient3923"
       y2="660.67999"
       gradientUnits="userSpaceOnUse"
       y1="656.92999"
       x2="217.35001"
       x1="211.60001">
      <stop
         id="stop3881"
         stop-color="#b3b3b3"
         offset="0" />
      <stop
         id="stop3883"
         stop-color="#c3c3c3"
         offset="1" />
    </linearGradient>
    <linearGradient
       id="linearGradient3925"
       y2="530.94"
       gradientUnits="userSpaceOnUse"
       y1="538.12"
       x2="342.98001"
       x1="354.89001">
      <stop
         id="stop3873"
         stop-color="#b3b3b3"
         offset="0" />
      <stop
         id="stop3875"
         stop-color="#666"
         offset="1" />
    </linearGradient>
    <linearGradient
       id="linearGradient3927"
       y2="261.59"
       gradientUnits="userSpaceOnUse"
       y1="258.04999"
       x2="404.38"
       x1="401.10999">
      <stop
         id="stop3900"
         stop-color="#ccc"
         offset="0" />
      <stop
         id="stop3902"
         stop-color="#4d4d4d"
         offset="1" />
    </linearGradient>
    <linearGradient
       id="linearGradient3929"
       y2="685.39001"
       gradientUnits="userSpaceOnUse"
       y1="683.65002"
       x2="402.87"
       x1="398.42999">
      <stop
         id="stop3892"
         stop-color="#b3b3b3"
         offset="0" />
      <stop
         id="stop3894"
         stop-color="#4d4d4d"
         offset="1" />
    </linearGradient>
  </defs>
  <metadata
     id="metadata4585">
    <rdf:RDF>
      <cc:Work>
        <dc:format>image/svg+xml</dc:format>
        <dc:type
           rdf:resource="http://purl.org/dc/dcmitype/StillImage" />
        <cc:license
           rdf:resource="http://creativecommons.org/publicdomain/zero/1.0/" />
        <dc:publisher>
          <cc:Agent
             rdf:about="http://openclipart.org/">
            <dc:title>Openclipart</dc:title>
          </cc:Agent>
        </dc:publisher>
        <dc:title></dc:title>
        <dc:date>2013-04-13T05:36:52</dc:date>
        <dc:description />
        <dc:source>https://openclipart.org/detail/176996/girder-by-jarda-176996</dc:source>
        <dc:creator>
          <cc:Agent>
            <dc:title>jarda</dc:title>
          </cc:Agent>
        </dc:creator>
        <dc:subject>
          <rdf:Bag>
            <rdf:li>girder</rdf:li>
            <rdf:li>iron</rdf:li>
            <rdf:li>metal</rdf:li>
            <rdf:li>steel</rdf:li>
          </rdf:Bag>
        </dc:subject>
      </cc:Work>
      <cc:License
         rdf:about="http://creativecommons.org/publicdomain/zero/1.0/">
        <cc:permits
           rdf:resource="http://creativecommons.org/ns#Reproduction" />
        <cc:permits
           rdf:resource="http://creativecommons.org/ns#Distribution" />
        <cc:permits
           rdf:resource="http://creativecommons.org/ns#DerivativeWorks" />
      </cc:License>
    </rdf:RDF>
  </metadata>
  <g
     id="g868"
     transform="matrix(0.67203126,0,0,0.61667045,-165.8781,33.785821)">
    <g
       transform="matrix(0.08346811,0,0,0.08346811,261.51821,-8.484653)"
       id="layer1">
      <g
         id="g3906">
        <path
           style="fill:url(#linearGradient3921);stroke:#666666;stroke-width:1px;stroke-linejoin:bevel"
           inkscape:connector-curvature="0"
           d="M 334.06,305.62 280,317.38 c -9.2131,2.0018 -20,10.572 -20,20 v 26.188 l 74.062,-57.938 z"
           id="path3082" />
        <path
           style="fill:url(#linearGradient3923)"
           inkscape:connector-curvature="0"
           d="m 220,644.09 -20,28.29 c 9.2885,-1.6164 20,-10.572 20,-20 v -8.2812 z"
           id="path3075" />
        <path
           style="fill:#b3b3b3;stroke:#b3b3b3;stroke-width:1px;stroke-linejoin:bevel"
           inkscape:connector-curvature="0"
           d="M 82.39,693.52 333.81,402.72 398.71,391.43 200,672.36 Z"
           id="path3052" />
        <path
           style="fill:#b3b3b3"
           inkscape:connector-curvature="0"
           d="m 333.81,160.03 -2.8219,2.8219 v 11.295 l 2.8219,2.8219 64.903,14.102 c 5.2,1.14 11.29,5.98 11.29,11.3 v 177.78 c 0,5.321 -6.0453,10.375 -11.287,11.287 l -64.903,11.295 -2.8219,2.8219 v 11.28 l 2.8219,2.8219 h 174.96 l 2.8219,-2.8219 v -11.28 l -2.8219,-2.8219 -64.903,-11.295 c -5.2422,-0.91227 -11.287,-5.9665 -11.287,-11.287 v -177.78 c 0,-5.321 6.0878,-10.158 11.287,-11.287 l 64.903,-14.102 2.8219,-2.8219 v -11.295 l -2.8219,-2.8219 z"
           id="path2986-7" />
        <path
           style="fill:#666666;stroke:#666666;stroke-width:1px;stroke-linejoin:bevel"
           inkscape:connector-curvature="0"
           d="M 260,678.56 432.57,406.34 V 228.56 L 260,363.56 Z"
           id="path3058" />
        <path
           style="fill:url(#linearGradient3925)"
           inkscape:connector-curvature="0"
           d="M 432.56,380.12 407.5,419.66 260,652.38 c 0,9.4281 10.712,18.384 20,20 l 1.7812,0.3125 145.84,-253.03 16.25,-28.219 c -1.3105,-0.22807 -2.6961,-0.72099 -4,-1.4062 -1.3039,-0.68526 -2.5417,-1.5724 -3.625,-2.5938 -1.0833,-1.0214 -2.0076,-2.1699 -2.6562,-3.4062 -0.32433,-0.61818 -0.57446,-1.257 -0.75,-1.9062 -0.17554,-0.64922 -0.28125,-1.3349 -0.28125,-2 z"
           id="path3070" />
        <path
           style="fill:#cccccc;stroke:#cccccc;stroke-width:1px;stroke-linejoin:bevel"
           inkscape:connector-curvature="0"
           d="M 395,262.36 508.77,160.03 H 333.81 L 85,262.36 Z"
           id="path3046" />
        <path
           style="fill:url(#linearGradient3927)"
           inkscape:connector-curvature="0"
           d="m 395,262.36 5,5 111.59,-104.51 c 0.0355,-1.6797 -1.171,-2.7967 -2.8219,-2.8219 z"
           id="path3048" />
        <path
           style="fill:#4d4d4d;stroke:#4d4d4d;stroke-width:1px;stroke-linejoin:bevel"
           inkscape:connector-curvature="0"
           d="M 398.6,290.34 511.14,174.61 c 0.26108,-0.44487 0.37752,-0.55497 0.44951,-1.1072 v -10.65 l -111.59,104.51 z"
           id="path3050" />
        <path
           style="fill:#b3b3b3;stroke:#b3b3b3;stroke-width:1px;stroke-linejoin:bevel"
           inkscape:connector-curvature="0"
           d="M 395,692.38 508.77,402.72 443.86,391.43 280,672.36 Z"
           id="path3054" />
        <path
           style="fill:url(#linearGradient3929)"
           inkscape:connector-curvature="0"
           d="M 508.75,402.72 395,692.38 c 2.3221,0.40411 5,2.643 5,5 L 511.59,405.53 c 0.22737,-1.2563 -1.479,-2.6085 -2.8438,-2.8125 z"
           id="path3056" />
        <path
           style="fill:#4d4d4d;stroke:#4d4d4d;stroke-width:1px;stroke-linejoin:bevel"
           inkscape:connector-curvature="0"
           d="M 399.68,718.86 511.59,416.83 V 405.55 L 400,697.38 Z"
           id="path3060" />
        <path
           style="fill:#999999;stroke:#999999;stroke-linejoin:bevel"
           inkscape:connector-curvature="0"
           d="m 85,262.36 c -2.357,0 -4.9751,2.6431 -5,5 -0.0721,6.8161 0.14572,13.748 0,20.013 -0.05481,2.3564 2.6967,4.4995 5,5 l 115,24.987 c 9.2131,2.0018 20,10.572 20,20 v 315 c 0,9.4281 -10.712,18.384 -20,20 L 85,692.38 c -2.3221,0.40411 -5,2.643 -5,5 v 19.987 c 0,2.357 2.643,5 5,5 h 310 c 2.357,0 5,-2.643 5,-5 V 697.38 c 0,-2.357 -2.6779,-4.5959 -5,-5 L 280,672.36 c -9.2885,-1.6164 -20,-10.572 -20,-20 v -315 c 0,-9.4281 10.787,-17.998 20,-20 l 115,-24.98 c 2.3033,-0.50046 5,-2.643 5,-5 v -20.013 c 0,-2.357 -2.643,-5 -5,-5 z"
           id="path2986" />
      </g>
    </g>
    <text
       id="text843"
       y="49.543674"
       x="305.61752"
       style="font-style:normal;font-variant:normal;font-weight:normal;font-stretch:normal;font-size:59.6546669px;line-height:1.25;font-family:'Bauhaus 93';-inkscape-font-specification:'Bauhaus 93, Normal';font-variant-ligatures:normal;font-variant-caps:normal;font-variant-numeric:normal;font-feature-settings:normal;text-align:start;letter-spacing:0px;word-spacing:0px;writing-mode:lr-tb;text-anchor:start;fill:#000000;fill-opacity:1;stroke:none;stroke-width:1.49135602"
       xml:space="preserve"><tspan
         style="font-style:normal;font-variant:normal;font-weight:normal;font-stretch:normal;font-size:59.6546669px;font-family:'Bauhaus 93';-inkscape-font-specification:'Bauhaus 93, Normal';font-variant-ligatures:normal;font-variant-caps:normal;font-variant-numeric:normal;font-feature-settings:normal;text-align:start;writing-mode:lr-tb;text-anchor:start;stroke-width:1.49135602"
         y="49.543674"
         x="305.61752"
         id="tspan841"
         sodipodi:role="line">ronPLC</tspan></text>
  </g>
</svg>
